<?xml version="1.0" encoding="UTF-8" standalone="no"?>
<svg
   xmlns:dc="http://purl.org/dc/elements/1.1/"
   xmlns:cc="http://creativecommons.org/ns#"
   xmlns:rdf="http://www.w3.org/1999/02/22-rdf-syntax-ns#"
   xmlns:svg="http://www.w3.org/2000/svg"
   xmlns="http://www.w3.org/2000/svg"
   xmlns:sodipodi="http://sodipodi.sourceforge.net/DTD/sodipodi-0.dtd"
   xmlns:inkscape="http://www.inkscape.org/namespaces/inkscape"
   width="160mm"
   height="160mm"
   viewBox="0 0 160 160"
   version="1.1"
   id="svg8"
   inkscape:version="1.0.2 (e86c870879, 2021-01-15, custom)"
   sodipodi:docname="e-ux.svg"
   inkscape:export-filename="Z:\ecomcloud.github.io\assets\e-ux.png"
   inkscape:export-xdpi="101.6"
   inkscape:export-ydpi="101.6">
  <defs
     id="defs2">
    <filter
       style="color-interpolation-filters:sRGB;"
       inkscape:label="Drop Shadow"
       id="filter1398">
      <feFlood
         flood-opacity="0.498039"
         flood-color="rgb(91,91,91)"
         result="flood"
         id="feFlood1388" />
      <feComposite
         in="flood"
         in2="SourceGraphic"
         operator="in"
         result="composite1"
         id="feComposite1390" />
      <feGaussianBlur
         in="composite1"
         stdDeviation="1.5"
         result="blur"
         id="feGaussianBlur1392" />
      <feOffset
         dx="2.5"
         dy="2.5"
         result="offset"
         id="feOffset1394" />
      <feComposite
         in="SourceGraphic"
         in2="offset"
         operator="over"
         result="composite2"
         id="feComposite1396" />
    </filter>
  </defs>
  <sodipodi:namedview
     id="base"
     pagecolor="#ffffff"
     bordercolor="#666666"
     borderopacity="1.0"
     inkscape:pageopacity="0.0"
     inkscape:pageshadow="2"
     inkscape:zoom="0.62225397"
     inkscape:cx="524.53931"
     inkscape:cy="295.31062"
     inkscape:document-units="mm"
     inkscape:current-layer="layer1"
     showgrid="false"
     inkscape:window-width="1920"
     inkscape:window-height="1001"
     inkscape:window-x="-9"
     inkscape:window-y="-9"
     inkscape:window-maximized="1"
     inkscape:document-rotation="0"
     units="pc" />
  <metadata
     id="metadata5">
    <rdf:RDF>
      <cc:Work
         rdf:about="">
        <dc:format>image/svg+xml</dc:format>
        <dc:type
           rdf:resource="http://purl.org/dc/dcmitype/StillImage" />
        <dc:title></dc:title>
      </cc:Work>
    </rdf:RDF>
  </metadata>
  <g
     inkscape:label="Layer 1"
     inkscape:groupmode="layer"
     id="layer1"
     transform="translate(0,-147)">
    <path
       style="fill:#000037;fill-opacity:1;stroke-width:0.26048"
       d="m 133.51007,248.33386 c 6.06622,-1.49389 10.23401,-3.78583 14.19578,-7.80647 7.62343,-7.7367 8.96331,-18.89846 3.35026,-27.90909 -1.27239,-2.04257 -4.63609,-5.59264 -6.64198,-7.00999 -1.94548,-1.37465 -5.13087,-3.05154 -6.96326,-3.66565 -1.98909,-0.66662 -2.0451,-0.74167 -1.86947,-2.50535 0.1933,-1.94124 -0.26288,-5.54132 -1.07483,-8.48228 -3.4548,-12.51368 -14.75871,-22.082 -28.98527,-24.53493 -3.71771,-0.64102 -9.974507,-0.633 -13.453217,0.0172 -5.57869,1.04274 -11.1005,3.33249 -15.57846,6.45993 -2.61398,1.82563 -6.35218,5.53161 -8.37668,8.30452 -1.4029,1.9215 -1.56538,2.05799 -2.37746,1.99729 -3.55838,-0.26598 -8.44658,-0.13624 -10.42393,0.27662 -8.73011,1.82287 -15.71336,7.11527 -19.32563,14.64634 l -0.9824,2.04819 -1.85005,-0.14551 c -2.1564,-0.16964 -6.73079,0.46603 -9.289833,1.29089 -5.407973,1.74318 -9.89431,4.75772 -13.356919,8.97499 -1.7950823,2.18631 -4.0390213,6.85415 -4.6087673,9.58716 -0.571322,2.74055 -0.521846,6.96755 0.112113,9.57859 0.626339,2.5796 1.929374,5.52451 3.403242,7.69144 1.3599433,1.99941 4.6071093,5.27987 6.5851843,6.65268 3.543857,2.45947 8.682758,4.4296 12.91475,4.95121 1.03494,0.12755 24.47776,0.21253 52.09516,0.1888 50.134247,-0.043 50.217057,-0.044 52.501667,-0.6066 z"
       id="path841"
       inkscape:connector-curvature="0" />
    <text
       xml:space="preserve"
       style="font-size:98.7778px;line-height:125%;font-family:IranNastaliq;-inkscape-font-specification:IranNastaliq;letter-spacing:0px;word-spacing:0px;fill:none;stroke:none;stroke-width:0.264583px;stroke-linecap:butt;stroke-linejoin:miter;stroke-opacity:1"
       x="67.580429"
       y="242.40112"
       id="text846"><tspan
         sodipodi:role="line"
         id="tspan844"
         x="67.580429"
         y="242.40112"
         style="font-style:normal;font-variant:normal;font-weight:normal;font-stretch:normal;font-size:98.7778px;font-family:Onyx;-inkscape-font-specification:Onyx;fill:#ffffff;stroke:none;stroke-width:0.264583px"
         rotate="0 0 0">e.</tspan></text>
    <text
       xml:space="preserve"
       style="font-style:normal;font-weight:normal;font-size:10.5833px;line-height:125%;font-family:sans-serif;letter-spacing:0px;word-spacing:0px;fill:#000037;fill-opacity:1;stroke:none;stroke-width:0.264583px;stroke-linecap:butt;stroke-linejoin:miter;stroke-opacity:1;filter:url(#filter1398)"
       x="93.655487"
       y="280.54117"
       id="text868"><tspan
         sodipodi:role="line"
         id="tspan866"
         x="93.655487"
         y="280.54117"
         style="font-style:normal;font-variant:normal;font-weight:normal;font-stretch:normal;font-size:74.0833px;font-family:Magneto;-inkscape-font-specification:Magneto;text-align:center;text-anchor:middle;fill:#000000;fill-opacity:1;stroke-width:0.264583px">ux </tspan><tspan
         sodipodi:role="line"
         x="93.655487"
         y="293.87646"
         id="tspan872"
         style="font-style:normal;font-variant:normal;font-weight:normal;font-stretch:normal;font-family:Magneto;-inkscape-font-specification:Magneto;fill:#000037;fill-opacity:1"> </tspan><tspan
         sodipodi:role="line"
         x="93.655487"
         y="307.10559"
         id="tspan870"
         style="font-style:normal;font-variant:normal;font-weight:normal;font-stretch:normal;font-family:Magneto;-inkscape-font-specification:Magneto;fill:#000037;fill-opacity:1" /></text>
  </g>
</svg>
